Mono16Loose.sfdir
StartChar: quotedbl
Encoding: 34 34 57
Width: 1152
VWidth: 0
Flags: W
HStem: 1024 640<384 512 768 896>
VStem: 384 128<1024 1664> 768 128<1024 1664>
LayerCount: 5
Back
Fore
SplineSet
384 1664 m 1
 512 1664 l 1
 512 1024 l 1
 384 1024 l 1
 384 1664 l 1
768 1664 m 5
 896 1664 l 5
 896 1024 l 5
 768 1024 l 5
 768 1664 l 5
EndSplineSet
Layer: 2
Layer: 3
Layer: 4
EndChar
StartChar: parenright
Encoding: 41 41 64
Width: 1152
VWidth: 0
Flags: W
VStem: 656 128<363.874 1042.64>
LayerCount: 5
Back
Fore
SplineSet
284 -256 m 1
 447 -256 l 1
 661 15 784 358 784 703 c 0
 784 1049 662 1392 447 1664 c 1
 284 1664 l 1
 519 1404 656 1054 656 703 c 0
 656 352 518 3 284 -256 c 1
EndSplineSet
Layer: 2
Layer: 3
Layer: 4
EndChar
StartChar: semicolon
Encoding: 59 59 81
Width: 1152
VWidth: 0
Flags: W
HStem: 768 256<384 640>
VStem: 384 256<184.32 256 768 1024> 384 128<-384 -312.32>
LayerCount: 5
Back
Fore
SplineSet
384 256 m 1xc0
 640 256 l 1xc0
 512 -384 l 1
 384 -384 l 1xa0
 384 256 l 1xc0
384 1024 m 1
 640 1024 l 1
 640 768 l 1
 384 768 l 1
 384 1024 l 1
EndSplineSet
Layer: 2
Layer: 3
Layer: 4
EndChar
StartChar: question
Encoding: 63 63 85
Width: 1152
VWidth: 0
Flags: W
HStem: 0 256<448 704> 1304 120<305.068 706.077>
VStem: 448 256<0 256> 512 128<512 649.905> 780 128<938.999 1232.74>
LayerCount: 5
Back
SplineSet
608 511.849609375 m 6
 576 512 577 511.99609375 576 512 c 6
 512.000976562 512.302734375 l 5
 512.4609375 598.0078125 543.358398438 679.290039062 590.422851562 746.818359375 c 4
 636.430664062 812.83203125 689.416992188 861.849609375 723.5859375 913.5859375 c 4
 758.786132812 966.8828125 779.58203125 1030.02441406 780.000976562 1092.37792969 c 4
 780.196289062 1121.36914062 776.143554688 1149.76171875 767.500976562 1175.51953125 c 4
 758.923828125 1201.08300781 745.42578125 1224.4296875 728.508789062 1242.84277344 c 4
 709.330078125 1263.71582031 684.150390625 1279.8671875 656.694335938 1289.71777344 c 4
 628.96875 1299.66601562 597.413085938 1304.06445312 564.130859375 1304 c 4
 506.6953125 1303.88964844 445.688476562 1291.49707031 381.19921875 1276.71679688 c 4
 323.893554688 1263.58203125 266.331054688 1249.2109375 208.198242188 1234.95410156 c 5
 175.801757812 1351.046875 l 5
 233.567382812 1365.21386719 291.790039062 1379.7578125 350.80078125 1393.28320312 c 4
 416.620117188 1408.36914062 487.619140625 1423.85253906 563.869140625 1424 c 4
 608.981445312 1424.08691406 656.380859375 1418.31835938 702.442382812 1401.79199219 c 4
 748.775390625 1385.16894531 791.630859375 1358.01171875 825.491210938 1321.15722656 c 4
 855.103515625 1288.92773438 876.302734375 1251.16503906 889.602539062 1211.52734375 c 4
 902.836914062 1172.08496094 908.266601562 1131.40332031 907.999023438 1091.62207031 c 4
 907.41796875 1005.12890625 879.245117188 921.323242188 832.4140625 850.4140625 c 4
 787.577148438 782.52734375 733.538085938 732.779296875 697.577148438 681.180664062 c 4
 662.098632812 630.274414062 640.314453125 570.3515625 639.999023438 511.698242188 c 5
 608 511.849609375 l 6
  Spiro
    608 511.85 ]
    585.718 511.955 o
    577.626 511.993 o
    576 512 [
    512.001 512.303 v
    522.059 596.106 o
    549.311 675.127 o
    590.423 746.818 o
    637.754 807.84 o
    684.144 862.078 o
    723.586 913.586 o
    753.739 969.712 o
    773.024 1030.22 o
    780.001 1092.38 o
    778.77 1121.07 o
    774.621 1148.99 o
    767.501 1175.52 o
    757.351 1200.22 o
    744.216 1222.91 o
    728.509 1242.84 o
    707.49 1262.07 o
    683.228 1277.84 o
    656.694 1289.72 o
    627.8 1297.85 o
    596.728 1302.54 o
    564.131 1304 o
    505.568 1300.17 o
    444.462 1290.32 o
    381.199 1276.72 o
    323.854 1263.23 o
    266.095 1249.18 o
    208.198 1234.95 v
    175.802 1351.05 v
    233.674 1365.27 o
    292.099 1379.48 o
    350.801 1393.28 o
    418.28 1407.91 o
    489.44 1419.33 o
    563.869 1424 o
    609.563 1421.96 o
    656.116 1414.9 o
    702.442 1401.79 o
    747.368 1381.71 o
    788.876 1354.72 o
    825.491 1321.16 o
    852.294 1287.25 o
    873.669 1250.37 o
    889.603 1211.53 o
    900.305 1171.79 o
    906.293 1131.58 o
    907.999 1091.62 o
    898.57 1006.49 o
    872.661 925.166 o
    832.414 850.414 o
    785.568 787.891 o
    738.509 732.85 o
    697.577 681.181 o
    666.977 627.706 o
    647.169 570.335 o
    639.999 511.698 v
    0 0 z
  EndSpiro
EndSplineSet
Fore
SplineSet
512 512 m 1xd8
 512 796 780 846 780 1092 c 0
 780 1228 699 1304 564 1304 c 0
 480 1304 357 1272 256 1247 c 1
 256 1371 l 1
 360 1397 475 1424 564 1424 c 0
 769 1424 908 1298 908 1092 c 0
 908 806 641 727 640 512 c 1
 512 512 l 1xd8
EndSplineSet
Refer: 68 46 S 1 0 0 1 64 0 2
Layer: 2
SplineSet
576 1364 m 4
 733.868164062 1364 844 1254.12988281 844 1096 c 4
 844 937.870076497 733.868164062 828 576 828 c 4
 418.131795247 828 308 937.870076497 308 1096 c 4
 308 1254.12988281 418.131795247 1364 576 1364 c 4
EndSplineSet
Layer: 3
SplineSet
192 1293 m 0
 249.948771171 1307.21259288 307.841791278 1321.67031002 366 1335 c 0
 431.153976786 1349.93309939 497.156738465 1363.87140822 564 1364 c 0
 603.196972429 1364.07540638 642.674329877 1358.99210132 679.568553612 1345.75485884 c 0
 716.462777347 1332.51761635 750.480298203 1310.86370992 777 1282 c 0
 800.264966674 1256.67870286 817.613182337 1226.12393598 828.551543928 1193.52364443 c 0
 839.48990552 1160.92335288 844.231017101 1126.38565681 844 1092 c 0
 843.499994448 1017.57685452 819.015914233 944.10273238 778 882 c 0
 738.497505842 822.188756756 684.984688893 772.805502629 644 714 c 0
 602.72826845 654.782643867 576.387874652 584.179641491 576 512 c 1024
  Spiro
    192 1293 {
    366 1335 o
    564 1364 o
    777 1282 o
    844 1092 o
    778 882 o
    644 714 o
    576 512 v
    0 0 z
  EndSpiro
EndSplineSet
Layer: 4
EndChar
StartChar: A
Encoding: 65 65 29
Width: 1152
VWidth: 0
Flags: W
HStem: 0 21G<103 243.5 908.5 1049> 388 120<316 836> 1289 119<549.995 602.005>
VStem: 103 135<0 322.307> 914 135<0 322.307>
LayerCount: 5
Back
Fore
SplineSet
836 508 m 5
 768.576335878 800 695.580152672 1061 581 1289 c 5
 571 1289 l 5
 456.419847328 1061 383.423664122 800 316 508 c 5
 836 508 l 5
103 0 m 5
 156.467312349 496 267.232445521 971 511 1408 c 5
 641 1408 l 5
 884.888619855 971 995.653753027 496 1049 0 c 5
 914 0 l 5
 903 136 877.7 265 859 388 c 5
 293 388 l 5
 274.3 265 249 136 238 0 c 5
 103 0 l 5
EndSplineSet
Layer: 2
Layer: 3
Layer: 4
EndChar
StartChar: G
Encoding: 71 71 35
Width: 1152
VWidth: 0
Flags: W
HStem: -16 120<446.67 892.627> 648 120<640 896> 1304 120<446.67 927.818>
VStem: 112 128<342.784 1065.21> 896 128<130.103 648>
LayerCount: 5
Back
SplineSet
643 1424 m 4
 765.651707429 1424 884.952236124 1394.67718608 994 1366.70527418 c 5
 994 1242.71900976 l 5
 880.542495955 1271.95940944 755.025860491 1304 643 1304 c 4
 430 1304 312.309419947 1187.92054939 268 1016 c 4
 243 919 240 813.350482315 240 704 c 4
 240 594.649414062 243.1745791 489.044827153 268 392 c 4
 312 220 430 104 643 104 c 4
 723.524278831 104 811.037241413 120.400617627 896 140.349059888 c 5
 896 648 l 5
 640 648 l 5
 640 768 l 5
 1024 768 l 5
 1024 49 l 5
 907 19 777 -16 643 -16 c 4
 542.661132812 -16 436.330382085 6.51015014331 347 64 c 4
 246 129 175.339592524 236.87194663 143 364 c 4
 114 478 112 594 112 704 c 4
 112 814 113.552151487 930.114863929 143 1044 c 4
 175.83902439 1171 246.37354134 1278.42320672 347 1344 c 4
 436 1402 542.661016949 1424 643 1424 c 4
EndSplineSet
Fore
SplineSet
643 1424 m 0
 766 1424 885 1395 994 1367 c 1
 994 1243 l 1
 881 1272 755 1304 643 1304 c 0
 430 1304 312 1188 268 1016 c 0
 243 919 240 813 240 704 c 0
 240 595 243 489 268 392 c 0
 312 220 430 104 643 104 c 0
 724 104 811 120 896 140 c 1
 896 648 l 1
 640 648 l 1
 640 768 l 1
 1024 768 l 1
 1024 49 l 1
 907 19 777 -16 643 -16 c 0
 543 -16 436 7 347 64 c 0
 246 129 175 237 143 364 c 0
 114 478 112 594 112 704 c 0
 112 814 114 930 143 1044 c 0
 176 1171 246 1278 347 1344 c 0
 436 1402 543 1424 643 1424 c 0
EndSplineSet
Layer: 2
Layer: 3
Layer: 4
EndChar
StartChar: W
Encoding: 87 87 50
Width: 1152
VWidth: 0
Flags: W
HStem: 0 21G<257 426.049 725.951 895> 1388 20G<116 247 905 1036>
VStem: 116 131<944.379 1408> 905 131<952.79 1408>
LayerCount: 5
Back
Fore
SplineSet
514 896 m 5
 638 896 l 5
 802 130 l 5
 812 130 l 5
 884.831325301 523.641068447 905 963.153589316 905 1408 c 5
 1036 1408 l 5
 1036 936 988 467 895 2 c 5
 730 0 l 5
 581 736 l 5
 571 736 l 5
 422 0 l 5
 257 2 l 5
 164 467 116 936 116 1408 c 5
 247 1408 l 5
 247 966.634390651 268.289156627 530.560934891 340 140 c 5
 350 140 l 5
 514 896 l 5
EndSplineSet
Layer: 2
Layer: 3
Layer: 4
EndChar
StartChar: backslash
Encoding: 92 92 26
Width: 1152
VWidth: 0
Flags: W
LayerCount: 5
Back
Fore
SplineSet
96 1664 m 1
 918 -256 l 1
 1056 -256 l 1
 234 1664 l 1
 96 1664 l 1
EndSplineSet
Layer: 2
Layer: 3
Layer: 4
EndChar
StartChar: bracketright
Encoding: 93 93 88
Width: 1152
VWidth: 0
Flags: W
HStem: -256 120<256 640> 1542 120<256 640>
VStem: 640 128<-136 1542>
LayerCount: 5
Back
Fore
SplineSet
768 1662 m 1
 768 1023 768 383 768 -256 c 1
 597 -256 427 -256 256 -256 c 1
 256 -136 l 1
 640 -136 l 1
 640 1542 l 1
 256 1542 l 1
 256 1662 l 1
 768 1662 l 1
EndSplineSet
Layer: 2
Layer: 3
Layer: 4
EndChar
StartChar: q
Encoding: 113 113 17
Width: 1152
VWidth: 0
Flags: W
HStem: -16 120<445.978 668.384> 920 120<445.978 668.384> 1004 20G<768 896>
VStem: 224 128<213.326 810.674> 768 128<-512 125 212.637 811.363 899 1024>
LayerCount: 5
Back
Fore
SplineSet
560 104 m 4xd8
 656 104 716 177 742 256 c 4
 767 332 768 420 768 512 c 4
 768 604 767 692 742 768 c 4
 716 847 656 920 560 920 c 4
 464 920 404 847 378 768 c 4
 353 692 352 604 352 512 c 4
 352 420 353 332 378 256 c 4
 404 177 464 104 560 104 c 4xd8
540 -16 m 4
 409 -16 299 71 252 221 c 4
 224 311 224 400 224 512 c 4
 224 624 224 713 252 803 c 4
 299 953 409 1040 540 1040 c 4xd8
 623 1040 699 991 758 899 c 5
 768 899 l 5
 768 1024 l 5
 896 1024 l 5xb8
 896 -512 l 5
 768 -512 l 5
 768 125 l 5
 758 125 l 5
 699 33 623 -16 540 -16 c 4
EndSplineSet
Layer: 2
Layer: 3
Layer: 4
EndChar
StartChar: v
Encoding: 118 118 1
Width: 1152
VWidth: 0
Flags: W
HStem: 0 119<554.551 597.449> 1004 20G<201 356.222 795.778 951>
VStem: 201 135<735.781 1024> 816 135<735.781 1024>
LayerCount: 5
Back
Fore
SplineSet
201 1024 m 5
 336 1024 l 5
 376.444444444 667.171428571 452 364.125714286 571 119 c 5
 581 119 l 5
 700 364.125714286 775.555555556 667.171428571 816 1024 c 5
 951 1024 l 5
 911.617376775 663 830.492063492 318 656 0 c 5
 496 0 l 5
 321.507936508 318 240.382623225 663 201 1024 c 5
EndSplineSet
Layer: 2
SplineSet
64 1536 m 5
 640 20 l 5
 1216 1536 l 1029
EndSplineSet
Layer: 3
Layer: 4
EndChar
StartChar: y
Encoding: 121 121 24
Width: 1152
VWidth: 0
Flags: W
HStem: -528 114<256 421.108> 1004 20G<201 357.261 791.724 951>
VStem: 201 135<738.514 1024> 816 135<794.6 1024>
LayerCount: 5
Back
Fore
SplineSet
497 0 m 5
 317.221001859 328 241.296495957 663 201 1024 c 5
 336 1024 l 5
 378.522033898 651.11663067 458.284745763 332.399568035 592 78 c 5
 602 78 l 5
 701.043249091 406.264324494 767.447334291 719.649011292 816 1024 c 5
 951 1024 l 5
 858.14273855 536.225537016 763.864794847 33.8576774691 546 -401 c 4
 500.35865925 -492.100021227 405.044038811 -528 256 -528 c 5
 256 -414 l 5
 353.844538719 -414 407.789942502 -403.543610306 435 -352 c 4
 493.61342364 -240.969456718 541.039075525 -129.902169034 585 0 c 5
 497 0 l 5
EndSplineSet
Layer: 2
SplineSet
391 -728 m 5
 391 -728 1005.36170213 962.091816367 1216 1536 c 1029
  Spiro
    391 -728 {
    557.788 -269.387 o
    908.89 694.973 o
    1216 1536 v
    0 0 z
  EndSpiro
653 5 m 5
 64 1536 l 1029
  Spiro
    653 5 {
    64 1536 v
    0 0 z
  EndSpiro
EndSplineSet
Layer: 3
SplineSet
596 -54 m 1
 466 -358 l 2
 457.563898426 -377.727499064 448.453103785 -397.460990346 434.85359019 -414.056027528 c 0
 421.254076596 -430.65106471 403.53896582 -443.783312939 383.822117037 -452.244276427 c 0
 364.105268254 -460.705239913 342.71200732 -464.662751865 321.32882854 -466.42391464 c 0
 299.94564976 -468.185077414 278.455582701 -468.000000003 257 -468 c 2
 256 -468 l 1025
  Spiro
    596 -54 {
    466 -358 ]
    257 -468 [
    256 -468 o
    0 0 z
  EndSpiro
EndSplineSet
Layer: 4
EndChar
StartChar: braceright
Encoding: 125 125 93
Width: 1152
VWidth: 0
Flags: W
HStem: -256 120<256 434.746> 643 120<716.461 896> 1542 120<256 434.746>
VStem: 512 128<-67.9502 91 416 574.95 831.05 990 1315 1473.95>
CounterMasks: 1 e0
LayerCount: 5
Back
Fore
SplineSet
671 698 m 1
 612 674 561 637 537 585 c 0
 512 531 512 484 512 416 c 2
 512 91 l 2
 512 33 512 0 498 -29 c 0
 463 -102 354 -136 256 -136 c 1
 256 -256 l 1
 408 -256 560 -196 615 -78 c 0
 640 -24 640 23 640 91 c 2
 640 416 l 2
 640 474 640 507 654 536 c 0
 689 609 798 643 896 643 c 1
 896 763 l 1
 798 763 689 797 654 870 c 0
 640 899 640 932 640 990 c 2
 640 1315 l 2
 640 1383 640 1430 615 1484 c 0
 560 1602 408 1662 256 1662 c 1
 256 1542 l 1
 354 1542 463 1508 498 1435 c 0
 512 1406 512 1373 512 1315 c 2
 512 990 l 2
 512 922 512 875 537 821 c 0
 561 769 612 732 671 708 c 1
 671 698 l 1
EndSplineSet
Layer: 2
Layer: 3
Layer: 4
EndChar
StartChar: tilde
Encoding: 126 126 94
Width: 1152
VWidth: 0
Flags: W
HStem: 510 120<684.911 859.817> 778 120<293.431 466.089>
VStem: 125 128<571 716.209> 899 128<691.792 838>
LayerCount: 5
Back
SplineSet
189 120 m 1
 175.139648438 181.705078125 166.125 245.524414062 166.125 308.819335938 c 0
 166.125 363.505859375 172.854492188 417.799804688 189 470 c 0
 203.345703125 516.379882812 227.016601562 560.76171875 262.752929688 593.622070312 c 0
 298.495117188 626.48828125 346.45703125 645.997070312 395.01953125 646 c 0
 427.842773438 646 460.301757812 637.59765625 490.37890625 624.45703125 c 0
 520.462890625 611.314453125 548.31640625 593.645507812 576 576 c 0
 603.68359375 558.354492188 631.537109375 540.685546875 661.62109375 527.54296875 c 0
 691.698242188 514.40234375 724.157226562 506 756.98046875 506 c 0
 805.54296875 506.002929688 853.504882812 525.51171875 889.247070312 558.377929688 c 0
 924.983398438 591.23828125 948.654296875 635.620117188 963 682 c 0
 979.145507812 734.200195312 985.875 788.494140625 985.875 843.180664062 c 0
 985.875 906.475585938 976.860351562 970.294921875 963 1032 c 1
 189 120 l 1
  Spiro
    189 120 v
    189 470 o
    395 646 o
    757 506 o
    963 682 o
    963 1032 v
    0 0 z
  EndSpiro
EndSplineSet
Fore
SplineSet
253 571 m 5
 125 571 l 5
 125 635 131 707 169 774 c 4
 205 838 277 898 374 898 c 4
 600 898 635 630 777 630 c 4
 821 630 852 658 870 690 c 4
 892 728 899 781 899 838 c 5
 1027 838 l 5
 1027 774 1021 701 983 634 c 4
 947 570 873 510 777 510 c 4
 551 510 516 778 374 778 c 4
 330 778 300 750 282 718 c 4
 260 680 253 628 253 571 c 5
EndSplineSet
Layer: 2
SplineSet
250.467773438 517.290039062 m 5
 127.532226562 550.709960938 l 5
 143.997070312 603.942382812 171.686523438 657.926757812 217.938476562 700.458007812 c 4
 264.870117188 743.612304688 328.1796875 769.99609375 395.01953125 770 c 4
 439.551757812 770 480.944335938 758.774414062 517.412109375 742.841796875 c 4
 553.684570312 726.995117188 584.249023438 707.295898438 611.984375 689.618164062 c 4
 639.618164062 672.00390625 664.755859375 656.368164062 688.655273438 645.927734375 c 4
 712.337890625 635.581054688 735.873046875 630 756.9765625 630 c 4
 787.271484375 630.001953125 819.874023438 642.630859375 844.432617188 665.213867188 c 4
 869.658203125 688.409179688 889.301757812 723.170898438 901.532226562 762.709960938 c 5
 1024.46777344 729.290039062 l 5
 1008.00683594 676.0703125 980.30859375 622.067382812 934.061523438 579.54296875 c 4
 887.135742188 536.392578125 823.814453125 510.00390625 756.984375 510 c 4
 712.44140625 510 671.05859375 521.224609375 634.586914062 537.159179688 c 4
 598.318359375 553.002929688 567.749023438 572.705078125 540.015625 590.3828125 c 4
 512.383789062 607.994140625 487.241210938 623.6328125 463.345703125 634.073242188 c 4
 439.659179688 644.420898438 416.133789062 650 395.01953125 650 c 4
 364.734375 649.998046875 332.120117188 637.36328125 307.567382812 614.787109375 c 4
 282.346679688 591.595703125 262.694335938 556.818359375 250.467773438 517.290039062 c 5
EndSplineSet
Layer: 3
Layer: 4
EndChar
StartChar: exclamdown
Encoding: 161 161 101
Width: 1152
VWidth: 0
Flags: W
VStem: 448 256
LayerCount: 5
Back
Fore
SplineSet
448 640 m 1
 704 640 l 1
 704 896 l 1
 448 896 l 1
 448 640 l 1
640 384 m 1
 512 384 l 1
 502 -512 l 1
 650 -512 l 1
 640 384 l 1
EndSplineSet
Layer: 2
Layer: 3
Layer: 4
EndChar
StartChar: logicalnot
Encoding: 172 172 318
Width: 1152
VWidth: 0
Flags: W
HStem: 644 120<128 896>
VStem: 896 128<384 644>
LayerCount: 5
Back
Fore
SplineSet
1024 764 m 5
 1024 384 l 5
 896 384 l 5
 896 644 l 5
 128 644 l 5
 128 764 l 5
 1024 764 l 5
EndSplineSet
Layer: 2
Layer: 3
Layer: 4
EndChar
StartChar: plusminus
Encoding: 177 177 292
Width: 1152
VWidth: 0
Flags: W
HStem: 388 120<128 1024> 900 120<128 512 640 1024>
VStem: 512 128<640 900 1020 1280>
LayerCount: 5
Back
Fore
SplineSet
128 508 m 5
 1024 508 l 5
 1024 388 l 5
 128 388 l 5
 128 508 l 5
640 1020 m 5
 1024 1020 l 5
 1024 900 l 5
 640 900 l 5
 640 640 l 5
 512 640 l 5
 512 900 l 5
 128 900 l 5
 128 1020 l 5
 512 1020 l 5
 512 1280 l 5
 640 1280 l 5
 640 1020 l 5
EndSplineSet
Layer: 2
Layer: 3
Layer: 4
EndChar
StartChar: periodcentered
Encoding: 183 183 95
Width: 1152
VWidth: 0
Flags: W
HStem: 384 256<384 640>
VStem: 384 256<384 640>
LayerCount: 5
Back
Fore
SplineSet
384 640 m 1
 640 640 l 1
 640 384 l 1
 384 384 l 1
 384 640 l 1
EndSplineSet
Layer: 2
Layer: 3
Layer: 4
EndChar
StartChar: cedilla
Encoding: 184 184 310
Width: 1152
VWidth: 0
Flags: W
HStem: -400 120<258.225 483.489> -20 20G<512 640>
VStem: 512 128<-233.261 0>
LayerCount: 5
Back
Fore
SplineSet
640 -105 m 6
 640 -165 640 -235 588 -305 c 4
 546 -362 474 -400 384 -400 c 4
 349 -400 303 -393 256 -383 c 5
 256 -260 l 5
 304 -271 350 -280 384 -280 c 4
 431 -280 463 -263 484 -235 c 4
 512 -198 512 -155 512 -105 c 6
 512 0 l 5
 640 0 l 5
 640 -105 l 6
EndSplineSet
Layer: 2
Layer: 3
Layer: 4
EndChar
StartChar: Adieresis
Encoding: 196 196 104
Width: 1152
VWidth: 0
Flags: W
HStem: 0 21G<103 243 909 1049> 388 120<304 848> 1161 119<547.875 604.125> 1456 224<261.032 442.968 709.032 890.968>
VStem: 240 224<1477.03 1658.97> 688 224<1477.03 1658.97>
LayerCount: 5
Back
Fore
SplineSet
103 0 m 1
 147 451 239 882 516 1280 c 1
 636 1280 l 1
 913 882 1005 451 1049 0 c 1
 914 0 l 1
 904 136 891 265 874 388 c 1
 278 388 l 1
 261 265 248 136 238 0 c 1
 103 0 l 1
848 508 m 1
 790 752 707 970 581 1161 c 1
 571 1161 l 1
 445 970 362 752 304 508 c 1
 848 508 l 1
800 1680 m 0
 866 1680 912 1634 912 1568 c 0
 912 1502 866 1456 800 1456 c 0
 734 1456 688 1502 688 1568 c 0
 688 1634 734 1680 800 1680 c 0
352 1680 m 0
 418 1680 464 1634 464 1568 c 0
 464 1502 418 1456 352 1456 c 0
 286 1456 240 1502 240 1568 c 0
 240 1634 286 1680 352 1680 c 0
EndSplineSet
Layer: 2
Layer: 3
Layer: 4
EndChar
StartChar: Aring
Encoding: 197 197 105
Width: 1152
VWidth: 0
Flags: W
HStem: 0 21G<103 243 909 1049> 388 120<304 848> 1229 135<547.875 604.125> 1580 100<491.338 660.662>
VStem: 368 108<1377.71 1566.43> 676 108<1377.71 1566.43>
LayerCount: 5
Back
Fore
SplineSet
848 508 m 1
 790 777 707 1018 581 1229 c 1
 571 1229 l 1
 445 1018 362 777 304 508 c 1
 848 508 l 1
576 1580 m 0
 518 1580 476 1546 476 1472 c 0
 476 1398 518 1364 576 1364 c 0
 634 1364 676 1398 676 1472 c 0
 676 1546 634 1580 576 1580 c 0
576 1680 m 0
 699 1680 784 1586 784 1472 c 0
 784 1392 742 1322 675 1287 c 1
 922 885 1007 452 1049 0 c 1
 914 0 l 1
 904 136 891 265 874 388 c 1
 278 388 l 1
 261 265 248 136 238 0 c 1
 103 0 l 1
 145 452 230 885 477 1287 c 1
 410 1322 368 1392 368 1472 c 0
 368 1586 453 1680 576 1680 c 0
EndSplineSet
Layer: 2
Layer: 3
Layer: 4
EndChar
StartChar: Ccedilla
Encoding: 199 199 107
Width: 1152
VWidth: 0
Flags: W
HStem: -400 120<386.225 611.489> 1304 120<446.67 927.818>
VStem: 112 128<342.784 1065.21> 640 128<-233.261 -16>
LayerCount: 5
Back
Fore
SplineSet
768 -105 m 2
 768 -165 768 -235 716 -305 c 0
 674 -362 602 -400 512 -400 c 0
 477 -400 431 -393 384 -383 c 1
 384 -260 l 1
 432 -271 478 -280 512 -280 c 0
 559 -280 591 -263 612 -235 c 0
 640 -198 640 -155 640 -105 c 2
 640 -16 l 1
 541 -16 435 7 347 64 c 0
 246 129 175 237 143 364 c 0
 114 478 112 594 112 704 c 0
 112 814 114 930 143 1044 c 0
 176 1171 246 1278 347 1344 c 0
 436 1402 543 1424 643 1424 c 0
 766 1424 885 1395 994 1367 c 1
 994 1243 l 1
 881 1272 755 1304 643 1304 c 0
 430 1304 312 1188 268 1016 c 0
 243 919 240 813 240 704 c 0
 240 595 243 489 268 392 c 0
 312 220 430 104 643 104 c 0
 765 104 903 142 1024 173 c 1
 1024 49 l 1
 944 28 858 5 768 -7 c 1
 768 -105 l 2
EndSplineSet
Layer: 2
Layer: 3
Layer: 4
EndChar
StartChar: Ecircumflex
Encoding: 202 202 111
Width: 1152
VWidth: 0
Flags: W
HStem: 0 120<384 1024> 644 120<384 896> 1160 120<384 1024> 1408 21G<200 384.585 767.415 952>
VStem: 256 128<120 644 764 1160>
LayerCount: 5
Back
Fore
SplineSet
256 1280 m 1
 1024 1280 l 1
 1024 1160 l 1
 384 1160 l 1
 384 764 l 1
 896 764 l 1
 896 644 l 1
 384 644 l 1
 384 120 l 1
 1024 120 l 1
 1024 0 l 1
 256 0 l 1
 256 1280 l 1
497 1664 m 1
 655 1664 l 1
 952 1408 l 1
 794 1408 l 1
 576 1572 l 1
 358 1408 l 1
 200 1408 l 1
 497 1664 l 1
EndSplineSet
Layer: 2
Layer: 3
Layer: 4
EndChar
StartChar: Yacute
Encoding: 221 221 129
Width: 1152
VWidth: 0
Flags: W
HStem: 0 21G<512 640>
VStem: 103 135<1077.19 1280> 512 128<0 488.285> 914 135<1077.19 1280>
CounterMasks: 1 70
LayerCount: 5
Back
Fore
SplineSet
103 1280 m 1
 238 1280 l 1
 284 999 372 760 571 567 c 1
 581 567 l 1
 780 760 868 999 914 1280 c 1
 1049 1280 l 1
 1006 988 914 709 640 452 c 1
 640 0 l 1
 512 0 l 1
 512 452 l 1
 238 709 146 988 103 1280 c 1
488 1408 m 1
 626 1408 l 1
 792 1664 l 1
 654 1664 l 1
 488 1408 l 1
EndSplineSet
Layer: 2
Layer: 3
Layer: 4
EndChar
StartChar: germandbls
Encoding: 223 223 131
Width: 1152
VWidth: 0
Flags: W
HStem: -16 120<519.217 718.888> 0 21G<256 384> 772 120<562 672.167> 1304 120<433.467 669.969>
VStem: 256 128<0 1254> 724 128<940.559 1250.62> 800 128<196.451 666.78>
LayerCount: 5
Back
SplineSet
592 920 m 4xbc
 496 920 436 847 410 768 c 0
 385 692 384 604 384 512 c 0
 384 420 385 332 410 256 c 4
 436 177 496 104 592 104 c 4
 688 104 748 177 774 256 c 4
 799 332 800 420 800 512 c 4
 800 604 799 692 774 768 c 4
 748 847 688 920 592 920 c 4xbc
612 1040 m 4
 743 1040 853 953 900 803 c 4
 928 713 928 624 928 512 c 4
 928 400 928 311 900 221 c 4
 853 71 743 -16 612 -16 c 4xbc
 529 -16 453 33 394 125 c 5
 384 125 l 1
 384 0 l 1
 256 0 l 1x7c
 256 1536 l 1
 384 1536 l 1
 384 899 l 1
 394 899 l 1
 453 991 529 1040 612 1040 c 4
EndSplineSet
Fore
SplineSet
730 833 m 1x7c
 888 779 928 646 928 438 c 0
 928 178 841 -16 612 -16 c 0
 571 -16 533 -10 504 -5 c 1
 520 113 l 1
 546 108 574 104 592 104 c 0
 772 104 800 264 800 438 c 0xba
 800 631 749 772 562 772 c 1
 562 892 l 1
 676 892 724 969 724 1098 c 0
 724 1227 666 1304 562 1304 c 0
 420 1304 384 1218 384 1078 c 2
 384 0 l 1
 256 0 l 1
 256 1078 l 2
 256 1278 353 1424 562 1424 c 0
 740 1424 852 1283 852 1098 c 0
 852 991 832 893 730 843 c 1
 730 833 l 1x7c
EndSplineSet
Layer: 2
SplineSet
320 0 m 5
 320 1196 l 5
 320 1288.5482934 332 1356 389 1414 c 4
 436 1462 504.720168777 1492 592 1492 c 4
 742.79971591 1492 848 1387.04971591 848 1236 c 4
 848 1084.95028409 742.79971591 980 592 980 c 1028
EndSplineSet
Layer: 3
Layer: 4
EndChar
StartChar: adieresis
Encoding: 228 228 136
Width: 1152
VWidth: 0
Flags: W
HStem: -16 120<416.403 660.71> 0 21G<768 896> 512 110<418.102 768> 920 120<324.593 738.851> 1200 224<261.032 442.968 709.032 890.968>
VStem: 224 128<169.682 443.733> 240 224<1221.03 1402.97> 688 224<1221.03 1402.97> 768 128<0 123 195.803 512 622 892.213>
LayerCount: 5
Back
Fore
SplineSet
768 512 m 1xbc80
 572 512 l 2
 517 512 459 512 408 458 c 0
 372 420 352 362 352 303 c 0
 352 194 425 104 532 104 c 0
 638 104 715 162 746 235 c 0
 768 287 768 349 768 421 c 2
 768 512 l 1xbc80
608 1040 m 0
 704 1040 805 1021 866 913 c 0
 896 860 896 785 896 749 c 2
 896 0 l 1
 768 0 l 1x7c80
 768 123 l 1
 758 123 l 1
 694 35 617 -16 508 -16 c 0
 455 -16 347 10 283 106 c 0
 249 157 224 224 224 301 c 0
 224 383 249 470 312 533 c 0
 402 622 512 622 574 622 c 2
 768 622 l 1
 768 744 l 2
 768 788 768 831 750 862 c 0
 729 898 696 920 608 920 c 0
 549 920 418 906 320 891 c 1
 320 1013 l 1
 417 1027 545 1040 608 1040 c 0
800 1424 m 0
 866 1424 912 1378 912 1312 c 0
 912 1246 866 1200 800 1200 c 0
 734 1200 688 1246 688 1312 c 0x39
 688 1378 734 1424 800 1424 c 0
352 1424 m 0x3c
 418 1424 464 1378 464 1312 c 0x3a
 464 1246 418 1200 352 1200 c 0x3c
 286 1200 240 1246 240 1312 c 0x3a
 240 1378 286 1424 352 1424 c 0x3c
EndSplineSet
Layer: 2
Layer: 3
Layer: 4
EndChar
StartChar: udieresis
Encoding: 252 252 161
Width: 1152
VWidth: 0
Flags: W
HStem: -16 120<447.689 680.727> 0 21G<768 896> 1004 20G<256 384 768 896> 1200 224<261.032 442.968 709.032 890.968>
VStem: 240 224<1221.03 1402.97> 256 128<169.924 1024> 688 224<1221.03 1402.97> 768 128<0 112 166.016 1024>
LayerCount: 5
Back
Fore
SplineSet
556 -16 m 0xb5
 456 -16 375 29 325 91 c 0
 256 177 256 273 256 367 c 2
 256 1024 l 1
 384 1024 l 1
 384 367 l 2
 384 280 384 218 429 166 c 0
 461 129 512 104 576 104 c 0xb5
 640 104 691 129 723 166 c 0
 768 218 768 280 768 367 c 2
 768 1024 l 1
 896 1024 l 1
 896 0 l 1
 768 0 l 1x75
 768 112 l 1
 758 112 l 1
 709 35 632 -16 556 -16 c 0xb5
800 1424 m 0
 866 1424 912 1378 912 1312 c 0
 912 1246 866 1200 800 1200 c 0
 734 1200 688 1246 688 1312 c 0x32
 688 1378 734 1424 800 1424 c 0
352 1424 m 0
 418 1424 464 1378 464 1312 c 0
 464 1246 418 1200 352 1200 c 0
 286 1200 240 1246 240 1312 c 0x38
 240 1378 286 1424 352 1424 c 0
EndSplineSet
Layer: 2
Layer: 3
Layer: 4
EndChar
StartChar: ydieresis
Encoding: 255 255 164
Width: 1152
VWidth: 0
Flags: W
HStem: -528 120<256 392.5> 1004 20G<201 353 803 951> 1200 224<261.032 442.968 709.032 890.968>
VStem: 201 135<727.078 1024> 240 224<1221.03 1402.97> 688 224<1221.03 1402.97> 816 135<712.23 1024>
LayerCount: 5
Back
Fore
SplineSet
201 1024 m 1xf2
 336 1024 l 1
 370 675 456 378 601 139 c 1
 611 139 l 1
 724 378 790 675 816 1024 c 1
 951 1024 l 1
 917 679 847 364 700 24 c 2
 525 -380 l 2
 516 -401 506 -426 486 -451 c 0
 437 -511 362 -528 257 -528 c 2
 256 -528 l 1
 256 -408 l 1
 257 -408 l 2
 314 -408 360 -409 384 -378 c 0
 391 -369 399 -355 407 -336 c 2
 552 0 l 1
 323 328 236 663 201 1024 c 1xf2
800 1424 m 0
 866 1424 912 1378 912 1312 c 0
 912 1246 866 1200 800 1200 c 0
 734 1200 688 1246 688 1312 c 0xe4
 688 1378 734 1424 800 1424 c 0
352 1424 m 0
 418 1424 464 1378 464 1312 c 0
 464 1246 418 1200 352 1200 c 0
 286 1200 240 1246 240 1312 c 0xe8
 240 1378 286 1424 352 1424 c 0
EndSplineSet
Layer: 2
Layer: 3
Layer: 4
EndChar
StartChar: Abreve
Encoding: 258 258 170
Width: 1152
VWidth: 0
Flags: W
HStem: 0 21G<103 243 909 1049> 388 120<304 848> 1161 119<547.875 604.125> 1392 120<418.746 733.254>
VStem: 236 128<1563.69 1664> 788 128<1563.69 1664>
LayerCount: 5
Back
Fore
SplineSet
788 1664 m 1
 916 1664 l 1
 916 1496 764 1392 576 1392 c 0
 388 1392 236 1496 236 1664 c 1
 364 1664 l 1
 364 1578 433 1512 576 1512 c 0
 719 1512 788 1578 788 1664 c 1
848 508 m 1
 790 752 707 970 581 1161 c 1
 571 1161 l 1
 445 970 362 752 304 508 c 1
 848 508 l 1
103 0 m 1
 147 451 239 882 516 1280 c 1
 636 1280 l 1
 913 882 1005 451 1049 0 c 1
 914 0 l 1
 904 136 891 265 874 388 c 1
 278 388 l 1
 261 265 248 136 238 0 c 1
 103 0 l 1
EndSplineSet
Layer: 2
Layer: 3
Layer: 4
EndChar
StartChar: aogonek
Encoding: 261 261 167
Width: 1152
VWidth: 0
Flags: W
HStem: -400 120<651.912 894.146> -16 120<416.403 660.71> 512 110<418.102 768> 920 120<324.593 738.851>
VStem: 224 128<169.682 443.733> 512 128<-262.716 -135.229> 768 128<-27.2361 123 195.803 512 622 892.213>
LayerCount: 5
Back
Fore
SplineSet
767 -280 m 0
 813 -280 857 -270 896 -260 c 1
 896 -383 l 1
 856 -391 813 -400 767 -400 c 0
 653 -400 512 -325 512 -205 c 0
 512 -57 707 -63 768 0 c 1
 768 123 l 1
 758 123 l 1
 694 35 617 -16 508 -16 c 0
 455 -16 347 10 283 106 c 0
 249 157 224 224 224 301 c 0
 224 383 249 470 312 533 c 0
 402 622 512 622 574 622 c 2
 768 622 l 1
 768 744 l 2
 768 788 768 831 750 862 c 0
 729 898 696 920 608 920 c 0
 549 920 418 906 320 891 c 1
 320 1013 l 1
 417 1027 545 1040 608 1040 c 0
 704 1040 805 1021 866 913 c 0
 896 860 896 785 896 749 c 2
 896 0 l 1
 855 -91 640 -103 640 -198 c 0
 640 -258 710 -280 767 -280 c 0
768 512 m 1
 572 512 l 2
 517 512 459 512 408 458 c 0
 372 420 352 362 352 303 c 0
 352 194 425 104 532 104 c 0
 638 104 715 162 746 235 c 0
 768 287 768 349 768 421 c 2
 768 512 l 1
EndSplineSet
Layer: 2
Layer: 3
Layer: 4
EndChar
StartChar: Cacute
Encoding: 262 262 173
Width: 1152
VWidth: 0
Flags: W
HStem: -16 120<446.67 926.39> 1176 120<446.67 927.818>
VStem: 112 128<342.784 937.211>
LayerCount: 5
Back
Fore
SplineSet
488 1408 m 1
 626 1408 l 1
 792 1664 l 1
 654 1664 l 1
 488 1408 l 1
1024 173 m 1
 1024 49 l 1
 907 19 777 -16 643 -16 c 0
 543 -16 436 7 347 64 c 0
 246 129 175 237 143 364 c 0
 119 458 112 551 112 640 c 0
 112 729 119 822 143 916 c 0
 176 1043 246 1150 347 1216 c 0
 436 1274 543 1296 643 1296 c 0
 766 1296 885 1267 994 1239 c 1
 994 1115 l 1
 881 1144 755 1176 643 1176 c 0
 430 1176 312 1060 268 888 c 0
 248 810 240 727 240 640 c 0
 240 553 248 471 268 392 c 0
 312 220 430 104 643 104 c 0
 765 104 903 142 1024 173 c 1
EndSplineSet
Layer: 2
Layer: 3
Layer: 4
EndChar
StartChar: dcaron
Encoding: 271 271 181
Width: 1152
VWidth: 0
Flags: W
HStem: -16 120<445.978 668.384> 920 120<445.978 668.384> 1516 20G<1024 1152>
VStem: 224 128<213.326 810.674> 768 128<212.637 811.363> 1024 128<1152 1536>
LayerCount: 5
Back
Fore
SplineSet
560 920 m 0
 656 920 716 847 742 768 c 0
 767 692 768 604 768 512 c 0
 768 420 767 332 742 256 c 0
 716 177 656 104 560 104 c 0
 464 104 404 177 378 256 c 0
 353 332 352 420 352 512 c 0
 352 604 353 692 378 768 c 0
 404 847 464 920 560 920 c 0
540 1040 m 0
 409 1040 299 953 252 803 c 0
 224 713 224 624 224 512 c 0
 224 400 224 311 252 221 c 0
 299 71 409 -16 540 -16 c 0
 623 -16 699 33 758 125 c 1
 768 125 l 1
 768 0 l 1
 896 0 l 1
 896 1536 l 1
 768 1536 l 1
 768 899 l 1
 758 899 l 1
 699 991 623 1040 540 1040 c 0
1024 1536 m 1
 1152 1536 l 1
 1152 1152 l 1
 1024 1152 l 1
 1024 1536 l 1
EndSplineSet
Layer: 2
Layer: 3
Layer: 4
EndChar
StartChar: dcroat
Encoding: 273 273 183
Width: 1152
VWidth: 0
Flags: W
HStem: -16 120<445.978 668.384> 0 21G<768 896> 920 120<445.978 668.384> 1284 120<384 768 896 1024> 1516 20G<768 896>
VStem: 224 128<213.326 810.674> 768 128<0 125 212.637 811.363 899 1284 1404 1536>
LayerCount: 5
Back
Fore
SplineSet
560 920 m 0xbe
 464 920 404 847 378 768 c 0
 353 692 352 604 352 512 c 0
 352 420 353 332 378 256 c 0
 404 177 464 104 560 104 c 0
 656 104 716 177 742 256 c 0
 767 332 768 420 768 512 c 0
 768 604 767 692 742 768 c 0
 716 847 656 920 560 920 c 0xbe
540 1040 m 0
 623 1040 699 991 758 899 c 1
 768 899 l 1
 768 1284 l 1
 384 1284 l 1
 384 1404 l 1
 768 1404 l 1
 768 1536 l 1
 896 1536 l 1
 896 1404 l 1
 1024 1404 l 1
 1024 1284 l 1
 896 1284 l 1
 896 0 l 1
 768 0 l 1x7e
 768 125 l 1
 758 125 l 1
 699 33 623 -16 540 -16 c 0
 409 -16 299 71 252 221 c 0
 224 311 224 400 224 512 c 0
 224 624 224 713 252 803 c 0
 299 953 409 1040 540 1040 c 0
EndSplineSet
Layer: 2
Layer: 3
Layer: 4
EndChar
StartChar: eogonek
Encoding: 281 281 165
Width: 1152
VWidth: 0
Flags: W
HStem: -288 120<651.912 894.146> -16 120<449.912 571> 25 123<731.326 896> 512 120<355 797> 920 120<447.84 704.16>
VStem: 224 128<210.579 512 632 809.36> 512 128<-150.716 -40.7539> 797 131<632 814.755>
LayerCount: 5
Back
SplineSet
767 -280 m 4xde
 813 -280 857 -270 896 -260 c 5
 896 -383 l 5
 856 -391 813 -400 767 -400 c 4
 653 -400 512 -325 512 -205 c 4
 512 -57 707 -63 768 0 c 5
 896 0 l 5
 855 -91 640 -103 640 -198 c 4
 640 -258 710 -280 767 -280 c 4xde
797 632 m 5
 794 690 786 744 768 789 c 4
 736 868 672 920 576 920 c 4
 480 920 416 868 384 789 c 4
 366 744 358 690 355 632 c 5
 797 632 l 5
352 512 m 5
 352 410 352 308 384 235 c 4
 420 152 485 104 586 104 c 4
 662 104 768 121 896 148 c 5
 896 25 l 5
 769 -1 669 -16 586 -16 c 4xbe
 417 -16 311 78 264 193 c 4
 226 286 224 391 224 512 c 4
 224 633 226 734 264 829 c 4
 310 945 416 1040 576 1040 c 4
 736 1040 842 945 888 829 c 4
 926 734 928 633 928 512 c 5
 352 512 l 5
EndSplineSet
Fore
SplineSet
896 25 m 5xbf
 809 7 640 -35 640 -86 c 4
 640 -146 710 -168 767 -168 c 4
 813 -168 857 -158 896 -148 c 5
 896 -271 l 5
 856 -279 813 -288 767 -288 c 4
 653 -288 512 -213 512 -93 c 4
 512 -56 537 -33 571 -16 c 5
 411 -11 310 81 264 193 c 4
 226 286 224 391 224 512 c 4
 224 633 226 734 264 829 c 4
 310 945 416 1040 576 1040 c 4
 736 1040 842 945 888 829 c 4
 926 734 928 633 928 512 c 5
 352 512 l 5
 352 410 352 308 384 235 c 4
 420 152 485 104 586 104 c 4xdf
 662 104 768 121 896 148 c 5
 896 107 896 66 896 25 c 5xbf
797 632 m 5
 789 790 733 920 576 920 c 4
 419 920 363 790 355 632 c 5
 797 632 l 5
EndSplineSet
Layer: 2
Layer: 3
Layer: 4
EndChar
StartChar: Gbreve
Encoding: 286 286 194
Width: 1152
VWidth: 0
Flags: W
HStem: -16 120<446.67 892.627> 520 120<640 896> 1176 120<446.67 927.818> 1392 120<418.746 733.254>
VStem: 112 128<342.784 937.211> 236 128<1563.69 1664> 788 128<1563.69 1664> 896 128<130.103 520>
LayerCount: 5
Back
Fore
SplineSet
788 1664 m 1xf6
 916 1664 l 1
 916 1496 764 1392 576 1392 c 0
 388 1392 236 1496 236 1664 c 1
 364 1664 l 1
 364 1578 433 1512 576 1512 c 0
 719 1512 788 1578 788 1664 c 1xf6
643 1296 m 0
 766 1296 885 1267 994 1239 c 1
 994 1115 l 1
 881 1144 755 1176 643 1176 c 0
 430 1176 312 1060 268 888 c 0
 248 810 240 727 240 640 c 0
 240 553 248 471 268 392 c 0
 312 220 430 104 643 104 c 0
 724 104 811 120 896 140 c 1
 896 520 l 1
 640 520 l 1
 640 640 l 1
 1024 640 l 1
 1024 49 l 1
 907 19 777 -16 643 -16 c 0
 543 -16 436 7 347 64 c 0
 246 129 175 237 143 364 c 0
 119 458 112 551 112 640 c 0xf9
 112 729 119 822 143 916 c 0
 176 1043 246 1150 347 1216 c 0
 436 1274 543 1296 643 1296 c 0
EndSplineSet
Layer: 2
Layer: 3
Layer: 4
EndChar
StartChar: gbreve
Encoding: 287 287 195
Width: 1152
VWidth: 0
Flags: W
HStem: -528 120<260.158 677.227> -16 120<445.978 668.384> 920 120<445.978 668.384> 1004 20G<768 896> 1136 120<418.746 733.254> 1388 20G<236 364 788 916>
VStem: 224 128<213.326 810.674 1320.51 1408> 768 128<-309.979 125 212.637 811.363 899 1024> 788 128<1307.69 1408>
LayerCount: 5
Back
Fore
SplineSet
788 1408 m 1xce80
 916 1408 l 1
 916 1240 764 1136 576 1136 c 0
 388 1136 236 1240 236 1408 c 1
 364 1408 l 1
 364 1322 433 1256 576 1256 c 0
 719 1256 788 1322 788 1408 c 1xce80
540 1040 m 0xef
 623 1040 699 991 758 899 c 1
 768 899 l 1
 768 1024 l 1
 896 1024 l 1xdf
 896 -96 l 2
 896 -156 896 -267 835 -369 c 0
 780 -461 684 -528 536 -528 c 0
 443 -528 345 -506 256 -489 c 1
 256 -366 l 1
 344 -383 448 -408 536 -408 c 0
 632 -408 687 -369 724 -310 c 0
 768 -239 768 -143 768 -96 c 2
 768 125 l 1
 758 125 l 1
 699 33 623 -16 540 -16 c 0
 409 -16 299 71 252 221 c 0
 224 311 224 400 224 512 c 0
 224 624 224 713 252 803 c 0
 299 953 409 1040 540 1040 c 0xef
560 920 m 0xef
 464 920 404 847 378 768 c 0
 353 692 352 604 352 512 c 0
 352 420 353 332 378 256 c 0
 404 177 464 104 560 104 c 0
 656 104 716 177 742 256 c 0
 767 332 768 420 768 512 c 0
 768 604 767 692 742 768 c 0
 716 847 656 920 560 920 c 0xef
EndSplineSet
Layer: 2
Layer: 3
Layer: 4
EndChar
StartChar: hbar
Encoding: 295 295 224
Width: 1152
VWidth: 0
Flags: W
HStem: 0 21G<256 384 768 896> 920 120<471.273 704.311> 1284 120<128 256 384 768> 1516 20G<256 384>
VStem: 256 128<0 857.984 912 1284 1404 1536> 768 128<0 854.076>
LayerCount: 5
Back
Fore
SplineSet
596 1040 m 0
 696 1040 777 995 827 933 c 0
 896 847 896 751 896 657 c 2
 896 0 l 1
 768 0 l 1
 768 657 l 2
 768 744 768 806 723 858 c 0
 691 895 640 920 576 920 c 0
 512 920 461 895 429 858 c 0
 384 806 384 744 384 657 c 2
 384 0 l 1
 256 0 l 1
 256 1284 l 1
 128 1284 l 1
 128 1404 l 1
 256 1404 l 1
 256 1536 l 1
 384 1536 l 1
 384 1404 l 1
 768 1404 l 1
 768 1284 l 1
 384 1284 l 1
 384 912 l 1
 394 912 l 1
 443 989 520 1040 596 1040 c 0
EndSplineSet
Layer: 2
Layer: 3
Layer: 4
EndChar
StartChar: Jcircumflex
Encoding: 308 308 237
Width: 1152
VWidth: 0
Flags: W
HStem: -16 120<229.959 669.737> 1160 120<256 768> 1408 21G<200 384.585 767.415 952>
VStem: 768 128<210.579 1160>
LayerCount: 5
Back
Fore
SplineSet
497 1664 m 1
 655 1664 l 1
 952 1408 l 1
 794 1408 l 1
 576 1572 l 1
 358 1408 l 1
 200 1408 l 1
 497 1664 l 1
896 512 m 2
 896 391 894 286 856 193 c 0
 809 78 703 -16 534 -16 c 0
 451 -16 351 -1 224 25 c 1
 224 148 l 1
 352 121 458 104 534 104 c 0
 635 104 700 152 736 235 c 0
 768 308 768 410 768 512 c 2
 768 1160 l 1
 256 1160 l 1
 256 1280 l 1
 469 1280 683 1280 896 1280 c 1
 896 512 l 2
EndSplineSet
Layer: 2
Layer: 3
Layer: 4
EndChar
StartChar: jcircumflex
Encoding: 309 309 239
Width: 1152
VWidth: 0
Flags: W
HStem: -528 120<258.703 579.284> 898 126<384 640> 1388 20G<473.797 678.203>
VStem: 640 128<-347.771 898>
LayerCount: 5
Back
Fore
SplineSet
497 1408 m 1
 655 1408 l 1
 952 1152 l 1
 794 1152 l 1
 576 1316 l 1
 358 1152 l 1
 200 1152 l 1
 497 1408 l 1
256 -365 m 1
 311 -387 380 -408 448 -408 c 0
 515 -408 565 -384 597 -346 c 0
 640 -294 640 -230 640 -142 c 2
 640 898 l 1
 384 898 l 1
 384 1024 l 1
 768 1024 l 1
 768 -152 l 2
 768 -243 768 -338 700 -420 c 0
 648 -483 564 -528 458 -528 c 0
 383 -528 316 -513 256 -493 c 1
 256 -365 l 1
EndSplineSet
Layer: 2
Layer: 3
Layer: 4
EndChar
StartChar: uni013B
Encoding: 315 315 281
Width: 1152
VWidth: 0
Flags: W
HStem: -528 120<384 483.008> 0 120<384 1024> 1388 20G<256 384>
VStem: 256 128<120 1408> 512 128<-361.261 -128>
LayerCount: 5
Back
Fore
SplineSet
640 -233 m 2
 640 -293 640 -363 588 -433 c 0
 546 -490 474 -528 384 -528 c 1
 384 -408 l 1
 431 -408 463 -391 484 -363 c 0
 512 -326 512 -283 512 -233 c 2
 512 -128 l 1
 640 -128 l 1
 640 -233 l 2
256 0 m 1
 256 1408 l 1
 384 1408 l 1
 384 120 l 1
 1024 120 l 1
 1024 0 l 1
 256 0 l 1
EndSplineSet
Layer: 2
Layer: 3
Layer: 4
EndChar
StartChar: ldot
Encoding: 320 320 284
Width: 1152
VWidth: 0
Flags: W
HStem: -16 120<540.725 766.027> 720 224<741.032 922.968> 1516 20G<384 512>
VStem: 384 128<149.787 1536> 720 224<741.032 922.968>
LayerCount: 5
Back
Fore
SplineSet
768 -2 m 1
 725 -9 680 -16 630 -16 c 0
 558 -16 499 9 457 52 c 0
 384 128 384 218 384 279 c 2
 384 1536 l 1
 512 1536 l 1
 512 279 l 2
 512 232 512 186 540 148 c 0
 560 121 591 104 640 104 c 0
 677 104 727 113 768 121 c 1
 768 -2 l 1
832 944 m 0
 898 944 944 898 944 832 c 0
 944 766 898 720 832 720 c 0
 766 720 720 766 720 832 c 0
 720 898 766 944 832 944 c 0
EndSplineSet
Layer: 2
Layer: 3
Layer: 4
EndChar
StartChar: Ncaron
Encoding: 327 327 244
Width: 1152
VWidth: 0
Flags: W
HStem: 0 21G<128 256 883.647 1024>
VStem: 128 128<0 1020> 896 128<260 1280>
LayerCount: 5
Back
Fore
SplineSet
497 1408 m 1
 655 1408 l 1
 952 1664 l 1
 794 1664 l 1
 576 1500 l 1
 358 1664 l 1
 200 1664 l 1
 497 1408 l 1
256 0 m 1
 128 0 l 1
 128 1280 l 1
 255 1280 l 1
 886 260 l 1
 896 260 l 1
 896 1280 l 1
 1024 1280 l 1
 1024 0 l 1
 896 0 l 1
 266 1020 l 1
 256 1020 l 1
 256 0 l 1
EndSplineSet
Layer: 2
Layer: 3
Layer: 4
EndChar
StartChar: oe
Encoding: 339 339 255
Width: 1152
VWidth: 0
Flags: W
HStem: -16 120<292.854 441.675 713.887 1021.06> 512 120<641 927> 920 120<292.854 442.773 707.256 872.503>
VStem: 96 128<187.817 836.183> 512 128<188.512 512 632 834.556> 927 127<632 861.341>
LayerCount: 5
Back
SplineSet
368 980 m 0
 362.652829754 980 357.306132593 979.661200842 352 979 c 0
 329.346877271 976.177178753 307.603030794 967.486154718 288.465213556 955.041226414 c 0
 269.327396317 942.596298109 252.725653026 926.447783311 238.814593477 908.347653162 c 0
 210.992474381 872.147392865 193.900455742 828.674579002 182.948453588 784.350964468 c 0
 161.044449277 695.7037354 160.000000004 603.313288333 160 512 c 0
 160 420.686711666 161.044449269 328.296264597 182.948453576 239.649035527 c 0
 193.900455732 195.325420992 210.992474373 151.85260713 238.814593472 115.652346834 c 0
 252.725653021 97.5522166853 269.327396314 81.4037018871 288.465213554 68.9587735833 c 0
 307.603030793 56.5138452796 329.346877271 47.8228212459 352 45 c 0
 357.306132593 44.338799158 362.652829754 44 368 44 c 0
 373.347170246 44 378.693867407 44.338799158 384 45 c 0
 406.653122729 47.8228212469 428.396969206 56.5138452816 447.534786444 68.9587735861 c 0
 466.672603683 81.4037018906 483.274346974 97.5522166894 497.185406523 115.652346838 c 0
 525.007525619 151.852607135 542.099544258 195.325420998 553.051546412 239.649035532 c 0
 574.955550723 328.2962646 575.999999996 420.686711667 576 512 c 0
 576 603.313288334 574.955550731 695.703735403 553.051546424 784.350964473 c 0
 542.099544268 828.674579008 525.007525627 872.14739287 497.185406528 908.347653166 c 0
 483.274346979 926.447783315 466.672603686 942.596298113 447.534786446 955.041226417 c 0
 428.396969207 967.48615472 406.653122729 976.177178754 384 979 c 0
 378.693867407 979.661200842 373.347170246 980 368 980 c 0
  Spiro
    368 980 o
    352 979 o
    160 512 o
    352 45 o
    368 44 o
    384 45 o
    576 512 o
    384 979 o
    0 0 z
  EndSpiro
EndSplineSet
Fore
SplineSet
927 632 m 1
 925 729 916 820 875 873 c 0
 852 902 824 920 790 920 c 0
 717 920 677 842 658 773 c 0
 646 729 642 682 641 632 c 1
 927 632 l 1
368 1040 m 0
 488 1040 543 954 572 863 c 1
 582 863 l 1
 627 973 695 1040 790 1040 c 0
 928 1040 1007 917 1035 802 c 0
 1054 725 1054 649 1054 577 c 2
 1054 512 l 1
 640 512 l 1
 640 469 l 2
 640 289 654 104 832 104 c 0
 888 104 962 119 1024 129 c 1
 1024 7 l 1
 961 -3 891 -16 829 -16 c 0
 724 -16 636 34 584 148 c 1
 574 148 l 1
 545 61 482 -16 368 -16 c 0
 320 -16 283 -1 252 20 c 0
 108 117 96 309 96 512 c 0
 96 715 108 907 252 1004 c 0
 283 1025 320 1040 368 1040 c 0
368 104 m 0
 402 104 428 129 445 151 c 0
 506 231 512 377 512 512 c 0
 512 647 507 793 445 873 c 0
 428 895 402 920 368 920 c 0
 334 920 308 895 291 873 c 0
 230 793 224 647 224 512 c 0
 224 377 229 231 291 151 c 0
 308 129 334 104 368 104 c 0
EndSplineSet
Layer: 2
SplineSet
368 1040 m 4
 376.23046875 1040 384.390625 1039.47851562 392.430664062 1038.4765625 c 4
 426.833984375 1034.19042969 457.7734375 1021.40332031 484.009765625 1004.34375 c 4
 510.224609375 987.296875 531.661132812 966.126953125 549.110351562 943.422851562 c 4
 583.889648438 898.171875 603.258789062 847.03125 615.400390625 797.890625 c 4
 639.407226562 700.732421875 640 603.65625 640 512 c 4
 640 420.344726562 639.407226562 323.267578125 615.400390625 226.109375 c 4
 603.258789062 176.96875 583.888671875 125.828125 549.111328125 80.5771484375 c 4
 531.6640625 57.876953125 510.219726562 36.701171875 484.013671875 19.658203125 c 4
 457.779296875 2.6005859375 426.826171875 -10.19140625 392.431640625 -14.4765625 c 4
 384.388671875 -15.4794921875 376.231445312 -16 368 -16 c 4
 359.76953125 -16 351.609375 -15.478515625 343.569335938 -14.4775390625 c 4
 309.166015625 -10.1904296875 278.2265625 2.595703125 251.990234375 19.65625 c 4
 225.775390625 36.705078125 204.33984375 57.8720703125 186.889648438 80.5771484375 c 4
 152.110351562 125.829101562 132.741210938 176.967773438 120.599609375 226.109375 c 4
 96.5927734375 323.267578125 96 420.34375 96 512 c 4
 96 603.655273438 96.5927734375 700.732421875 120.599609375 797.890625 c 4
 132.741210938 847.03125 152.110351562 898.171875 186.889648438 943.422851562 c 4
 204.334960938 966.122070312 225.780273438 987.299804688 251.98828125 1004.34277344 c 4
 278.21875 1021.3984375 309.173828125 1034.19140625 343.568359375 1038.4765625 c 4
 351.611328125 1039.47851562 359.768554688 1040 368 1040 c 4
368 920 m 4
 365.536132812 920 363 919.842773438 360.431640625 919.522460938 c 4
 349.51953125 918.163085938 336.98828125 913.57421875 324.94140625 905.740234375 c 4
 312.874023438 897.893554688 301.116210938 886.7734375 290.739257812 873.272460938 c 4
 269.874023438 846.123046875 255.059570312 810.318359375 245.296875 770.810546875 c 4
 225.497070312 690.674804688 224 602.970703125 224 512 c 4
 224 421.029296875 225.497070312 333.32421875 245.296875 253.189453125 c 4
 255.059570312 213.681640625 269.874023438 177.876953125 290.739257812 150.727539062 c 4
 301.111328125 137.232421875 312.87890625 126.103515625 324.939453125 118.260742188 c 4
 336.98046875 110.431640625 349.52734375 105.8359375 360.430664062 104.477539062 c 4
 363.001953125 104.157226562 365.53515625 104 368 104 c 4
 370.463867188 104 373 104.157226562 375.568359375 104.4765625 c 4
 386.48046875 105.836914062 399.013671875 110.426757812 411.056640625 118.258789062 c 4
 423.125976562 126.107421875 434.884765625 137.227539062 445.259765625 150.7265625 c 4
 466.126953125 177.877929688 480.940429688 213.681640625 490.703125 253.189453125 c 4
 510.502929688 333.325195312 512 421.029296875 512 512 c 4
 512 602.970703125 510.502929688 690.67578125 490.703125 770.810546875 c 4
 480.940429688 810.318359375 466.125976562 846.124023438 445.260742188 873.272460938 c 4
 434.887695312 886.768554688 423.12109375 897.896484375 411.060546875 905.739257812 c 4
 399.01953125 913.568359375 386.47265625 918.1640625 375.569335938 919.522460938 c 4
 372.998046875 919.842773438 370.46484375 920 368 920 c 4
EndSplineSet
Layer: 3
Layer: 4
EndChar
StartChar: uni0157
Encoding: 343 343 259
Width: 1152
VWidth: 0
Flags: W
HStem: -528 120<256 355.008> 0 21G<256 384> 920 120<504.949 892.248> 1004 20G<256 384>
VStem: 256 128<0 782.495 876 1024> 384 128<-361.261 -128>
LayerCount: 5
Back
Fore
SplineSet
512 -233 m 2xc4
 512 -293 512 -363 460 -433 c 0
 418 -490 346 -528 256 -528 c 1
 256 -408 l 1xc8
 303 -408 335 -391 356 -363 c 0
 384 -326 384 -283 384 -233 c 2
 384 -128 l 1
 512 -128 l 1
 512 -233 l 2xc4
256 1024 m 1xd8
 384 1024 l 1xd8
 384 876 l 1
 394 876 l 1
 460 982 537 1040 665 1040 c 0
 737 1040 818 1034 896 1026 c 1
 896 903 l 1
 814 913 730 920 665 920 c 0xe8
 589 920 535 903 491 866 c 0
 385 778 384 612 384 535 c 2
 384 0 l 1
 256 0 l 1
 256 1024 l 1xd8
EndSplineSet
Layer: 2
Layer: 3
Layer: 4
EndChar
StartChar: scaron
Encoding: 353 353 270
Width: 1152
VWidth: 0
Flags: W
HStem: -16 120<260.566 720.345> 920 120<413.623 843.839>
VStem: 234 128<687.599 867.607> 800 128<183.035 441.813>
LayerCount: 5
Back
Fore
SplineSet
493 1162 m 1
 651 1162 l 1
 948 1418 l 1
 790 1418 l 1
 572 1254 l 1
 354 1418 l 1
 196 1418 l 1
 493 1162 l 1
567 -16 m 0
 474 -16 355 7 256 26 c 1
 256 149 l 1
 351 129 480 104 567 104 c 0
 755 104 800 231 800 313 c 0
 800 397 757 458 700 488 c 0
 614 532 507 510 402 550 c 0
 318 582 234 661 234 776 c 0
 234 904 343 1040 572 1040 c 0
 679 1040 789 1012 886 989 c 1
 886 866 l 1
 788 889 665 920 572 920 c 0
 410 920 362 834 362 776 c 0
 362 719 404 679 450 662 c 0
 543 627 654 651 762 594 c 0
 855 545 928 445 928 313 c 0
 928 147 810 -16 567 -16 c 0
EndSplineSet
Layer: 2
Layer: 3
Layer: 4
EndChar
StartChar: uring
Encoding: 367 367 205
Width: 1152
VWidth: 0
Flags: W
HStem: -16 120<447.689 680.727> 0 21G<768 896> 1004 20G<256 384 768 896> 1008 100<491.338 660.662> 1324 100<491.338 660.662>
VStem: 256 128<169.924 1024> 368 108<1121.57 1310.43> 676 108<1121.57 1310.43> 768 128<0 112 166.016 1024>
LayerCount: 5
Back
Fore
SplineSet
576 1424 m 0x1b
 699 1424 784 1330 784 1216 c 0
 784 1102 699 1008 576 1008 c 0
 453 1008 368 1102 368 1216 c 0
 368 1330 453 1424 576 1424 c 0x1b
576 1324 m 0
 518 1324 476 1290 476 1216 c 0
 476 1142 518 1108 576 1108 c 0
 634 1108 676 1142 676 1216 c 0
 676 1290 634 1324 576 1324 c 0
556 -16 m 0x8c80
 456 -16 375 29 325 91 c 0
 256 177 256 273 256 367 c 2
 256 1024 l 1
 384 1024 l 1
 384 367 l 2
 384 280 384 218 429 166 c 0
 461 129 512 104 576 104 c 0xac80
 640 104 691 129 723 166 c 0
 768 218 768 280 768 367 c 2
 768 1024 l 1
 896 1024 l 1
 896 0 l 1
 768 0 l 1x6c80
 768 112 l 1
 758 112 l 1
 709 35 632 -16 556 -16 c 0x8c80
EndSplineSet
Layer: 2
Layer: 3
Layer: 4
EndChar
StartChar: uogonek
Encoding: 371 371 210
Width: 1152
VWidth: 0
Flags: W
HStem: -400 120<651.912 894.146> -16 120<447.689 680.727> 1004 20G<256 384 768 896>
VStem: 256 128<169.924 1024> 512 128<-262.716 -135.229> 768 128<-27.2361 112 166.016 1024>
CounterMasks: 1 1c
LayerCount: 5
Back
Fore
SplineSet
767 -280 m 0
 813 -280 857 -270 896 -260 c 1
 896 -383 l 1
 856 -391 813 -400 767 -400 c 0
 653 -400 512 -325 512 -205 c 0
 512 -57 707 -63 768 0 c 1
 768 112 l 1
 758 112 l 1
 709 35 632 -16 556 -16 c 0
 456 -16 375 29 325 91 c 0
 256 177 256 273 256 367 c 2
 256 1024 l 1
 384 1024 l 1
 384 367 l 2
 384 280 384 218 429 166 c 0
 461 129 512 104 576 104 c 0
 640 104 691 129 723 166 c 0
 768 218 768 280 768 367 c 2
 768 1024 l 1
 896 1024 l 1
 896 0 l 1
 855 -91 640 -103 640 -198 c 0
 640 -258 710 -280 767 -280 c 0
EndSplineSet
Layer: 2
Layer: 3
Layer: 4
EndChar
StartChar: Wcircumflex
Encoding: 372 372 210
Width: 1152
VWidth: 0
Flags: W
HStem: 0 21G<257 387.136 764.864 895> 1408 21G<200 384.585 767.415 952>
VStem: 116 131<818.647 1280> 905 131<818.647 1280>
LayerCount: 5
Back
Fore
SplineSet
497 1664 m 1
 655 1664 l 1
 952 1408 l 1
 794 1408 l 1
 576 1572 l 1
 358 1408 l 1
 200 1408 l 1
 497 1664 l 1
514 896 m 1
 638 896 l 1
 812 210 l 1
 822 210 l 1
 887 540 905 908 905 1280 c 1
 1036 1280 l 1
 1036 851 988 425 895 2 c 1
 770 0 l 1
 581 736 l 1
 571 736 l 1
 382 0 l 1
 257 2 l 1
 164 425 116 851 116 1280 c 1
 247 1280 l 1
 247 908 266 540 330 210 c 1
 340 210 l 1
 514 896 l 1
EndSplineSet
Layer: 2
Layer: 3
Layer: 4
EndChar
StartChar: Ycircumflex
Encoding: 374 374 212
Width: 1152
VWidth: 0
Flags: W
HStem: 0 21G<512 640> 1408 21G<200 384.585 767.415 952>
VStem: 103 135<1077.19 1280> 512 128<0 488.285> 914 135<1077.19 1280>
CounterMasks: 1 38
LayerCount: 5
Back
Fore
SplineSet
497 1664 m 1
 655 1664 l 1
 952 1408 l 1
 794 1408 l 1
 576 1572 l 1
 358 1408 l 1
 200 1408 l 1
 497 1664 l 1
103 1280 m 1
 238 1280 l 1
 284 999 372 760 571 567 c 1
 581 567 l 1
 780 760 868 999 914 1280 c 1
 1049 1280 l 1
 1006 988 914 709 640 452 c 1
 640 0 l 1
 512 0 l 1
 512 452 l 1
 238 709 146 988 103 1280 c 1
EndSplineSet
Layer: 2
Layer: 3
Layer: 4
EndChar
StartChar: Ydieresis
Encoding: 376 376 215
Width: 1152
VWidth: 0
Flags: W
HStem: 0 21G<512 640> 1456 224<261.032 442.968 709.032 890.968>
VStem: 103 135<1077.19 1280> 240 224<1477.03 1658.97> 512 128<0 488.285> 688 224<1477.03 1658.97> 914 135<1077.19 1280>
LayerCount: 5
Back
Fore
SplineSet
352 1680 m 0
 418 1680 464 1634 464 1568 c 0
 464 1502 418 1456 352 1456 c 0
 286 1456 240 1502 240 1568 c 0
 240 1634 286 1680 352 1680 c 0
800 1680 m 0
 866 1680 912 1634 912 1568 c 0
 912 1502 866 1456 800 1456 c 0
 734 1456 688 1502 688 1568 c 0
 688 1634 734 1680 800 1680 c 0
103 1280 m 1
 238 1280 l 1
 284 999 372 760 571 567 c 1
 581 567 l 1
 780 760 868 999 914 1280 c 1
 1049 1280 l 1
 1006 988 914 709 640 452 c 1
 640 0 l 1
 512 0 l 1
 512 452 l 1
 238 709 146 988 103 1280 c 1
EndSplineSet
Layer: 2
Layer: 3
Layer: 4
EndChar
StartChar: zacute
Encoding: 378 378 217
Width: 1152
VWidth: 0
Flags: W
HStem: 0 120<401 896> 904 120<276 731>
VStem: 256 640<0 92>
LayerCount: 5
Back
Fore
SplineSet
488 1152 m 1
 626 1152 l 1
 792 1408 l 1
 654 1408 l 1
 488 1152 l 1
276 904 m 1
 276 1024 l 1
 876 1024 l 1
 876 934 l 1
 401 130 l 1
 401 120 l 1
 896 120 l 1
 896 0 l 1
 256 0 l 1
 256 92 l 1
 731 894 l 1
 731 904 l 1
 276 904 l 1
EndSplineSet
Layer: 2
Layer: 3
Layer: 4
EndChar
StartChar: uni030A
Encoding: 778 778 302
Width: 1152
VWidth: 0
Flags: W
HStem: 1068 100<491.338 660.662> 1384 100<491.338 660.662>
VStem: 368 108<1181.57 1370.43> 676 108<1181.57 1370.43>
LayerCount: 5
Back
Fore
SplineSet
576 1384 m 4
 518 1384 476 1350 476 1276 c 4
 476 1202 518 1168 576 1168 c 4
 634 1168 676 1202 676 1276 c 4
 676 1350 634 1384 576 1384 c 4
576 1484 m 4
 699 1484 784 1390 784 1276 c 4
 784 1162 699 1068 576 1068 c 4
 453 1068 368 1162 368 1276 c 4
 368 1390 453 1484 576 1484 c 4
EndSplineSet
Layer: 2
Layer: 3
Layer: 4
EndChar
StartChar: uni0312
Encoding: 786 786 305
Width: 1152
VWidth: 0
Flags: W
HStem: 1560 120<540.992 640>
VStem: 384 128<1280 1513.26>
LayerCount: 5
Back
Fore
SplineSet
384 1385 m 6
 384 1445 384 1515 436 1585 c 4
 478 1642 550 1680 640 1680 c 4
 640 1560 l 4
 593 1560 561 1543 540 1515 c 4
 512 1478 512 1435 512 1385 c 6
 512 1280 l 5
 384 1280 l 5
 384 1385 l 6
EndSplineSet
Layer: 2
Layer: 3
Layer: 4
EndChar
StartChar: asterisk.alt
Encoding: 1114112 -1 101
Width: 1152
VWidth: 0
Flags: HW
LayerCount: 5
Back
Fore
SplineSet
725 640 m 1
 640 679 l 1
 640 729 l 1
 725 768 l 1
 1000 1040 l 1
 906 1122 l 1
 640 853 l 1
 601 768 l 1
 551 768 l 1
 512 853 l 1
 246 1122 l 1
 152 1040 l 1
 427 768 l 1
 512 729 l 1
 512 679 l 1
 427 640 l 1
 152 368 l 1
 246 286 l 1
 512 555 l 1
 551 640 l 1
 601 640 l 1
 640 555 l 1
 906 286 l 1
 1000 368 l 1
 725 640 l 1
EndSplineSet
Layer: 2
Layer: 3
Layer: 4
EndChar
StartChar: zero.dotless
Encoding: 1114114 -1 322
Width: 1152
VWidth: 0
Flags: W
HStem: -18 124<468.706 683.294> 1302 124<468.706 683.294>
VStem: 253 124<240.586 1167.41> 775 124<240.586 1167.41>
LayerCount: 5
Back
Fore
SplineSet
576 1302 m 0
 486.204101562 1302 432.208984375 1232.04296875 404 1144 c 0
 377 1059.72949219 377 893.279296875 377 704 c 0
 377 514.720703125 377 348.270507812 404 264 c 0
 432.208984375 175.95703125 486.204101562 106 576 106 c 0
 665.795898438 106 719.791015625 175.95703125 748 264 c 0
 775 348.270507812 775 514.720703125 775 704 c 0
 775 893.279296875 775 1059.72949219 748 1144 c 0
 719.791015625 1232.04296875 665.795898438 1302 576 1302 c 0
  Spiro
    576 1302 o
    497.834 1280.64 o
    441.129 1224.02 o
    404 1144 o
    385.012 1034.67 o
    377.997 883.304 o
    377 704 o
    377.997 524.696 o
    385.012 373.333 o
    404 264 o
    441.129 183.977 o
    497.834 127.357 o
    576 106 o
    654.166 127.357 o
    710.871 183.977 o
    748 264 o
    766.988 373.333 o
    774.003 524.696 o
    775 704 o
    774.003 883.304 o
    766.988 1034.67 o
    748 1144 o
    710.871 1224.02 o
    654.166 1280.64 o
    0 0 z
  EndSpiro
576 1426 m 0
 740.506835938 1426 820.091796875 1315.24902344 860 1209 c 0
 899 1105.16992188 899 925.756835938 899 704 c 0
 899 482.243164062 899 302.830078125 860 199 c 0
 820.091796875 92.7509765625 740.506835938 -18 576 -18 c 0
 411.493164062 -18 331.908203125 92.7509765625 292 199 c 0
 253 302.830078125 253 482.243164062 253 704 c 0
 253 925.756835938 253 1105.16992188 292 1209 c 0
 331.908203125 1315.24902344 411.493164062 1426 576 1426 c 0
  Spiro
    576 1426 o
    713.762 1393.41 o
    805.262 1312.38 o
    860 1209 o
    887.427 1081.36 o
    897.56 910.221 o
    899 704 o
    897.56 497.779 o
    887.427 326.643 o
    860 199 o
    805.262 95.6154 o
    713.762 14.5874 o
    576 -18 o
    438.238 14.5874 o
    346.738 95.6154 o
    292 199 o
    264.573 326.643 o
    254.44 497.779 o
    253 704 o
    254.44 910.221 o
    264.573 1081.36 o
    292 1209 o
    346.738 1312.38 o
    438.238 1393.41 o
    0 0 z
  EndSpiro
EndSplineSet
Layer: 2
Layer: 3
Layer: 4
EndChar
StartChar: zero.slashed
Encoding: 1114113 -1 320
Width: 1152
VWidth: 0
Flags: W
HStem: -18 124<468.751 683.294> 1302 124<468.706 683.249>
VStem: 253 124<415.341 1166.59> 775 124<241.414 992.659>
LayerCount: 5
Back
Fore
SplineSet
576 1426 m 0
 740.506835938 1426 820.091796875 1315.24902344 860 1209 c 0
 899 1105.16992188 899 925.756835938 899 704 c 0
 899 482.243164062 899 302.830078125 860 199 c 0
 820.091796875 92.7509765625 740.506835938 -18 576 -18 c 0
 411.493164062 -18 331.908203125 92.7509765625 292 199 c 0
 253 302.830078125 253 482.243164062 253 704 c 0
 253 925.756835938 253 1105.16992188 292 1209 c 0
 331.908203125 1315.24902344 411.493164062 1426 576 1426 c 0
576 1302 m 0
 486.204101562 1302 432.208984375 1232.04296875 404 1144 c 0
 377 1059.72949219 377 893.279296875 377 704 c 0
 377 595.083984375 382.14453125 493.7265625 382.14453125 411.236328125 c 1
 739.827148438 1167.09472656 l 1
 709.872070312 1243.96875 657.78515625 1302 576 1302 c 0
412.172851562 240.905273438 m 1
 442.127929688 164.03125 494.21484375 106 576 106 c 0
 665.795898438 106 719.791015625 175.95703125 748 264 c 0
 775 348.270507812 775 514.720703125 775 704 c 0
 775 812.916015625 769.85546875 914.2734375 769.85546875 996.763671875 c 1
 412.172851562 240.905273438 l 1
EndSplineSet
Layer: 2
Layer: 3
Layer: 4
EndChar
